<svg width="661" height="672" viewBox="0 0 661 672" fill="none" xmlns="http://www.w3.org/2000/svg">
<path fill-rule="evenodd" clip-rule="evenodd" d="M591 672C629.66 672 661 640.66 661 602V262C661 223.34 629.66 192 591 192L399.843 192C395.644 85.2518 307.778 4.19617e-05 200 4.19617e-05C89.5431 4.19617e-05 4.3273e-05 89.5431 4.3273e-05 200C4.3273e-05 304.049 79.4547 389.54 181 399.109L181 602C181 640.66 212.34 672 251 672H591ZM181 399.109C187.254 399.699 193.592 400 200 400C310.457 400 400 310.457 400 200C400 197.321 399.947 194.654 399.843 192H251C212.34 192 181 223.34 181 262V399.109Z" fill="#333"/>
</svg>
